<?xml version="1.0" encoding="utf-8" standalone="no"?>
<!DOCTYPE svg PUBLIC "-//W3C//DTD SVG 1.1//EN"
  "http://www.w3.org/Graphics/SVG/1.1/DTD/svg11.dtd">
<svg xmlns:xlink="http://www.w3.org/1999/xlink" width="683.681988pt" height="218.357597pt" viewBox="0 0 683.681988 218.357597" xmlns="http://www.w3.org/2000/svg" version="1.1">
 <metadata>
  <rdf:RDF xmlns:dc="http://purl.org/dc/elements/1.1/" xmlns:cc="http://creativecommons.org/ns#" xmlns:rdf="http://www.w3.org/1999/02/22-rdf-syntax-ns#">
   <cc:Work>
    <dc:type rdf:resource="http://purl.org/dc/dcmitype/StillImage"/>
    <dc:date>2026-10-09T00:48:24.578429</dc:date>
    <dc:format>image/svg+xml</dc:format>
    <dc:creator>
     <cc:Agent>
      <dc:title>Matplotlib v3.11.2, https://matplotlib.org/</dc:title>
     </cc:Agent>
    </dc:creator>
   </cc:Work>
  </rdf:RDF>
 </metadata>
 <defs>
  <style type="text/css">*{stroke-linejoin: round; stroke-linecap: butt}</style>
 </defs>
 <g id="figure_1">
  <g id="patch_1">
   <path d="M 0 218.357597 
L 683.681988 218.357597 
L 683.681988 0 
L 0 0 
z
" style="fill: #ffffff"/>
  </g>
  <g id="axes_1">
   <g id="line2d_1">
    <path d="M 64.609196 44.2832 
L 671.846588 44.2832 
" clip-path="url(#pc172fc6d53)" style="fill: none; stroke: #000000; stroke-width: 2; stroke-linecap: square"/>
   </g>
   <g id="line2d_2">
    <path d="M 64.609196 90.637199 
L 671.846588 90.637199 
" clip-path="url(#pc172fc6d53)" style="fill: none; stroke: #000000; stroke-width: 2; stroke-linecap: square"/>
   </g>
   <g id="line2d_3">
    <path d="M 64.609196 136.991198 
L 671.846588 136.991198 
" clip-path="url(#pc172fc6d53)" style="fill: none; stroke: #000000; stroke-width: 2; stroke-linecap: square"/>
   </g>
   <g id="line2d_4">
    <path d="M 64.609196 183.345198 
L 671.846588 183.345198 
" clip-path="url(#pc172fc6d53)" style="fill: none; stroke: #000000; stroke-width: 2; stroke-linecap: square"/>
   </g>
   <g id="patch_2">
    <path d="M 59.973797 21.1062 
L -1098.876188 21.1062 
L -1098.876188 252.876197 
L 59.973797 252.876197 
z
" clip-path="url(#pc172fc6d53)" style="fill: #ffffff; stroke: #ffffff; stroke-width: 1.5; stroke-linejoin: miter"/>
   </g>
   <g id="patch_3">
    <path d="M 83.373295 198.410247 
L 188.615416 198.410247 
L 188.615416 29.21815 
L 83.373295 29.21815 
z
" clip-path="url(#pc172fc6d53)" style="fill: #9f1853; stroke: #9f1853; stroke-width: 1.5; stroke-linejoin: miter"/>
   </g>
   <g id="patch_4">
    <path d="M 223.112062 198.410247 
L 373.354645 198.410247 
L 373.354645 29.21815 
L 223.112062 29.21815 
z
" clip-path="url(#pc172fc6d53)" style="fill: #9f1853; stroke: #9f1853; stroke-width: 1.5; stroke-linejoin: miter"/>
   </g>
   <g id="patch_5">
    <path d="M 401.669985 198.410247 
L 519.274717 198.410247 
L 519.274717 29.21815 
L 401.669985 29.21815 
z
" clip-path="url(#pc172fc6d53)" style="fill: #9f1853; stroke: #9f1853; stroke-width: 1.5; stroke-linejoin: miter"/>
   </g>
   <g id="patch_6">
    <path d="M 551.307648 198.410247 
L 647.76105 198.410247 
L 647.76105 29.21815 
L 551.307648 29.21815 
z
" clip-path="url(#pc172fc6d53)" style="fill: #9f1853; stroke: #9f1853; stroke-width: 1.5; stroke-linejoin: miter"/>
   </g>
   <g id="text_1">
    <g clip-path="url(#pc172fc6d53)">
     <!-- ${q}_{0}$ -->
     <g transform="translate(38.688397 48.179684) scale(0.15 -0.15)">
      <defs>
       <path id="DejaVuSans-Oblique-54" d="M 2669 525 
Q 2438 222 2123 65 
Q 1809 -91 1428 -91 
Q 897 -91 595 267 
Q 294 625 294 1253 
Q 294 1759 480 2231 
Q 666 2703 1013 3078 
Q 1238 3322 1530 3453 
Q 1822 3584 2144 3584 
Q 2531 3584 2781 3431 
Q 3031 3278 3144 2969 
L 3244 3494 
L 3822 3494 
L 2888 -1319 
L 2309 -1319 
L 2669 525 
z
M 891 1338 
Q 891 875 1084 633 
Q 1278 391 1644 391 
Q 2188 391 2572 911 
Q 2956 1431 2956 2175 
Q 2956 2625 2757 2864 
Q 2559 3103 2188 3103 
Q 1916 3103 1684 2976 
Q 1453 2850 1281 2606 
Q 1100 2350 995 2006 
Q 891 1663 891 1338 
z
" transform="scale(0.015625)"/>
       <path id="DejaVuSans-13" d="M 2034 4250 
Q 1547 4250 1301 3770 
Q 1056 3291 1056 2328 
Q 1056 1369 1301 889 
Q 1547 409 2034 409 
Q 2525 409 2770 889 
Q 3016 1369 3016 2328 
Q 3016 3291 2770 3770 
Q 2525 4250 2034 4250 
z
M 2034 4750 
Q 2819 4750 3233 4129 
Q 3647 3509 3647 2328 
Q 3647 1150 3233 529 
Q 2819 -91 2034 -91 
Q 1250 -91 836 529 
Q 422 1150 422 2328 
Q 422 3509 836 4129 
Q 1250 4750 2034 4750 
z
" transform="scale(0.015625)"/>
      </defs>
      <use xlink:href="#DejaVuSans-Oblique-54"/>
      <use xlink:href="#DejaVuSans-13" transform="translate(63.476562 -14.999951) scale(0.7)"/>
     </g>
    </g>
   </g>
   <g id="text_2">
    <g clip-path="url(#pc172fc6d53)">
     <!-- ${q}_{1}$ -->
     <g transform="translate(38.688397 94.533683) scale(0.15 -0.15)">
      <defs>
       <path id="DejaVuSans-14" d="M 794 531 
L 1825 531 
L 1825 4091 
L 703 3866 
L 703 4441 
L 1819 4666 
L 2450 4666 
L 2450 531 
L 3481 531 
L 3481 0 
L 794 0 
L 794 531 
z
" transform="scale(0.015625)"/>
      </defs>
      <use xlink:href="#DejaVuSans-Oblique-54"/>
      <use xlink:href="#DejaVuSans-14" transform="translate(63.476562 -14.999951) scale(0.7)"/>
     </g>
    </g>
   </g>
   <g id="text_3">
    <g clip-path="url(#pc172fc6d53)">
     <!-- ${q}_{2}$ -->
     <g transform="translate(38.688397 140.887683) scale(0.15 -0.15)">
      <defs>
       <path id="DejaVuSans-15" d="M 1228 531 
L 3431 531 
L 3431 0 
L 469 0 
L 469 531 
Q 828 903 1448 1529 
Q 2069 2156 2228 2338 
Q 2531 2678 2651 2914 
Q 2772 3150 2772 3378 
Q 2772 3750 2511 3984 
Q 2250 4219 1831 4219 
Q 1534 4219 1204 4116 
Q 875 4013 500 3803 
L 500 4441 
Q 881 4594 1212 4672 
Q 1544 4750 1819 4750 
Q 2544 4750 2975 4387 
Q 3406 4025 3406 3419 
Q 3406 3131 3298 2873 
Q 3191 2616 2906 2266 
Q 2828 2175 2409 1742 
Q 1991 1309 1228 531 
z
" transform="scale(0.015625)"/>
      </defs>
      <use xlink:href="#DejaVuSans-Oblique-54"/>
      <use xlink:href="#DejaVuSans-15" transform="translate(63.476562 -14.999951) scale(0.7)"/>
     </g>
    </g>
   </g>
   <g id="text_4">
    <g clip-path="url(#pc172fc6d53)">
     <!-- ${q}_{3}$ -->
     <g transform="translate(38.688397 187.241682) scale(0.15 -0.15)">
      <defs>
       <path id="DejaVuSans-16" d="M 2597 2516 
Q 3050 2419 3304 2112 
Q 3559 1806 3559 1356 
Q 3559 666 3084 287 
Q 2609 -91 1734 -91 
Q 1441 -91 1130 -33 
Q 819 25 488 141 
L 488 750 
Q 750 597 1062 519 
Q 1375 441 1716 441 
Q 2309 441 2620 675 
Q 2931 909 2931 1356 
Q 2931 1769 2642 2001 
Q 2353 2234 1838 2234 
L 1294 2234 
L 1294 2753 
L 1863 2753 
Q 2328 2753 2575 2939 
Q 2822 3125 2822 3475 
Q 2822 3834 2567 4026 
Q 2313 4219 1838 4219 
Q 1578 4219 1281 4162 
Q 984 4106 628 3988 
L 628 4550 
Q 988 4650 1302 4700 
Q 1616 4750 1894 4750 
Q 2613 4750 3031 4423 
Q 3450 4097 3450 3541 
Q 3450 3153 3228 2886 
Q 3006 2619 2597 2516 
z
" transform="scale(0.015625)"/>
      </defs>
      <use xlink:href="#DejaVuSans-Oblique-54"/>
      <use xlink:href="#DejaVuSans-16" transform="translate(63.476562 -14.999951) scale(0.7)"/>
     </g>
    </g>
   </g>
   <g id="text_5">
    <g clip-path="url(#pc172fc6d53)">
     <!-- 0 -->
     <g style="fill: #ffffff" transform="translate(86.618075 47.400387) scale(0.12 -0.12)">
      <use xlink:href="#DejaVuSans-13"/>
     </g>
    </g>
   </g>
   <g id="text_6">
    <g clip-path="url(#pc172fc6d53)">
     <!-- 1 -->
     <g style="fill: #ffffff" transform="translate(86.618075 93.754386) scale(0.12 -0.12)">
      <use xlink:href="#DejaVuSans-14"/>
     </g>
    </g>
   </g>
   <g id="text_7">
    <g clip-path="url(#pc172fc6d53)">
     <!-- 2 -->
     <g style="fill: #ffffff" transform="translate(86.618075 140.108386) scale(0.12 -0.12)">
      <use xlink:href="#DejaVuSans-15"/>
     </g>
    </g>
   </g>
   <g id="text_8">
    <g clip-path="url(#pc172fc6d53)">
     <!-- 3 -->
     <g style="fill: #ffffff" transform="translate(86.618075 186.462385) scale(0.12 -0.12)">
      <use xlink:href="#DejaVuSans-16"/>
     </g>
    </g>
   </g>
   <g id="text_9">
    <g clip-path="url(#pc172fc6d53)">
     <!-- O_C -->
     <g style="fill: #ffffff" transform="translate(129.180483 109.730214) scale(0.12 -0.12)">
      <defs>
       <path id="DejaVuSans-32" d="M 2522 4238 
Q 1834 4238 1429 3725 
Q 1025 3213 1025 2328 
Q 1025 1447 1429 934 
Q 1834 422 2522 422 
Q 3209 422 3611 934 
Q 4013 1447 4013 2328 
Q 4013 3213 3611 3725 
Q 3209 4238 2522 4238 
z
M 2522 4750 
Q 3503 4750 4090 4092 
Q 4678 3434 4678 2328 
Q 4678 1225 4090 567 
Q 3503 -91 2522 -91 
Q 1538 -91 948 565 
Q 359 1222 359 2328 
Q 359 3434 948 4092 
Q 1538 4750 2522 4750 
z
" transform="scale(0.015625)"/>
       <path id="DejaVuSans-42" d="M 3263 -1063 
L 3263 -1509 
L -63 -1509 
L -63 -1063 
L 3263 -1063 
z
" transform="scale(0.015625)"/>
       <path id="DejaVuSans-26" d="M 4122 4306 
L 4122 3641 
Q 3803 3938 3442 4084 
Q 3081 4231 2675 4231 
Q 1875 4231 1450 3742 
Q 1025 3253 1025 2328 
Q 1025 1406 1450 917 
Q 1875 428 2675 428 
Q 3081 428 3442 575 
Q 3803 722 4122 1019 
L 4122 359 
Q 3791 134 3420 21 
Q 3050 -91 2638 -91 
Q 1578 -91 968 557 
Q 359 1206 359 2328 
Q 359 3453 968 4101 
Q 1578 4750 2638 4750 
Q 3056 4750 3426 4639 
Q 3797 4528 4122 4306 
z
" transform="scale(0.015625)"/>
      </defs>
      <use xlink:href="#DejaVuSans-32"/>
      <use xlink:href="#DejaVuSans-42" transform="translate(78.71875 0)"/>
      <use xlink:href="#DejaVuSans-26" transform="translate(128.71875 0)"/>
     </g>
    </g>
    <g clip-path="url(#pc172fc6d53)">
     <!-- 1.7131 s -->
     <g style="fill: #ffffff" transform="translate(115.06642 124.132558) scale(0.12 -0.12)">
      <defs>
       <path id="DejaVuSans-11" d="M 684 794 
L 1344 794 
L 1344 0 
L 684 0 
L 684 794 
z
" transform="scale(0.015625)"/>
       <path id="DejaVuSans-1a" d="M 525 4666 
L 3525 4666 
L 3525 4397 
L 1831 0 
L 1172 0 
L 2766 4134 
L 525 4134 
L 525 4666 
z
" transform="scale(0.015625)"/>
       <path id="DejaVuSans-3" transform="scale(0.015625)"/>
       <path id="DejaVuSans-56" d="M 2834 3397 
L 2834 2853 
Q 2591 2978 2328 3040 
Q 2066 3103 1784 3103 
Q 1356 3103 1142 2972 
Q 928 2841 928 2578 
Q 928 2378 1081 2264 
Q 1234 2150 1697 2047 
L 1894 2003 
Q 2506 1872 2764 1633 
Q 3022 1394 3022 966 
Q 3022 478 2636 193 
Q 2250 -91 1575 -91 
Q 1294 -91 989 -36 
Q 684 19 347 128 
L 347 722 
Q 666 556 975 473 
Q 1284 391 1588 391 
Q 1994 391 2212 530 
Q 2431 669 2431 922 
Q 2431 1156 2273 1281 
Q 2116 1406 1581 1522 
L 1381 1569 
Q 847 1681 609 1914 
Q 372 2147 372 2553 
Q 372 3047 722 3315 
Q 1072 3584 1716 3584 
Q 2034 3584 2315 3537 
Q 2597 3491 2834 3397 
z
" transform="scale(0.015625)"/>
      </defs>
      <use xlink:href="#DejaVuSans-14"/>
      <use xlink:href="#DejaVuSans-11" transform="translate(63.625 0)"/>
      <use xlink:href="#DejaVuSans-1a" transform="translate(95.40625 0)"/>
      <use xlink:href="#DejaVuSans-14" transform="translate(159.03125 0)"/>
      <use xlink:href="#DejaVuSans-16" transform="translate(222.65625 0)"/>
      <use xlink:href="#DejaVuSans-14" transform="translate(286.28125 0)"/>
      <use xlink:href="#DejaVuSans-3" transform="translate(349.90625 0)"/>
      <use xlink:href="#DejaVuSans-56" transform="translate(381.6875 0)"/>
     </g>
    </g>
   </g>
   <g id="text_10">
    <g clip-path="url(#pc172fc6d53)">
     <!-- 0 -->
     <g style="fill: #ffffff" transform="translate(226.356842 47.400387) scale(0.12 -0.12)">
      <use xlink:href="#DejaVuSans-13"/>
     </g>
    </g>
   </g>
   <g id="text_11">
    <g clip-path="url(#pc172fc6d53)">
     <!-- 1 -->
     <g style="fill: #ffffff" transform="translate(226.356842 93.754386) scale(0.12 -0.12)">
      <use xlink:href="#DejaVuSans-14"/>
     </g>
    </g>
   </g>
   <g id="text_12">
    <g clip-path="url(#pc172fc6d53)">
     <!-- 2 -->
     <g style="fill: #ffffff" transform="translate(226.356842 140.108386) scale(0.12 -0.12)">
      <use xlink:href="#DejaVuSans-15"/>
     </g>
    </g>
   </g>
   <g id="text_13">
    <g clip-path="url(#pc172fc6d53)">
     <!-- 3 -->
     <g style="fill: #ffffff" transform="translate(226.356842 186.462385) scale(0.12 -0.12)">
      <use xlink:href="#DejaVuSans-16"/>
     </g>
    </g>
   </g>
   <g id="text_14">
    <g clip-path="url(#pc172fc6d53)">
     <!-- U dagger -->
     <g style="fill: #ffffff" transform="translate(275.771668 109.730683) scale(0.12 -0.12)">
      <defs>
       <path id="DejaVuSans-38" d="M 556 4666 
L 1191 4666 
L 1191 1831 
Q 1191 1081 1462 751 
Q 1734 422 2344 422 
Q 2950 422 3222 751 
Q 3494 1081 3494 1831 
L 3494 4666 
L 4128 4666 
L 4128 1753 
Q 4128 841 3676 375 
Q 3225 -91 2344 -91 
Q 1459 -91 1007 375 
Q 556 841 556 1753 
L 556 4666 
z
" transform="scale(0.015625)"/>
       <path id="DejaVuSans-47" d="M 2906 2969 
L 2906 4863 
L 3481 4863 
L 3481 0 
L 2906 0 
L 2906 525 
Q 2725 213 2448 61 
Q 2172 -91 1784 -91 
Q 1150 -91 751 415 
Q 353 922 353 1747 
Q 353 2572 751 3078 
Q 1150 3584 1784 3584 
Q 2172 3584 2448 3432 
Q 2725 3281 2906 2969 
z
M 947 1747 
Q 947 1113 1208 752 
Q 1469 391 1925 391 
Q 2381 391 2643 752 
Q 2906 1113 2906 1747 
Q 2906 2381 2643 2742 
Q 2381 3103 1925 3103 
Q 1469 3103 1208 2742 
Q 947 2381 947 1747 
z
" transform="scale(0.015625)"/>
       <path id="DejaVuSans-44" d="M 2194 1759 
Q 1497 1759 1228 1600 
Q 959 1441 959 1056 
Q 959 750 1161 570 
Q 1363 391 1709 391 
Q 2188 391 2477 730 
Q 2766 1069 2766 1631 
L 2766 1759 
L 2194 1759 
z
M 3341 1997 
L 3341 0 
L 2766 0 
L 2766 531 
Q 2569 213 2275 61 
Q 1981 -91 1556 -91 
Q 1019 -91 701 211 
Q 384 513 384 1019 
Q 384 1609 779 1909 
Q 1175 2209 1959 2209 
L 2766 2209 
L 2766 2266 
Q 2766 2663 2505 2880 
Q 2244 3097 1772 3097 
Q 1472 3097 1187 3025 
Q 903 2953 641 2809 
L 641 3341 
Q 956 3463 1253 3523 
Q 1550 3584 1831 3584 
Q 2591 3584 2966 3190 
Q 3341 2797 3341 1997 
z
" transform="scale(0.015625)"/>
       <path id="DejaVuSans-4a" d="M 2906 1791 
Q 2906 2416 2648 2759 
Q 2391 3103 1925 3103 
Q 1463 3103 1205 2759 
Q 947 2416 947 1791 
Q 947 1169 1205 825 
Q 1463 481 1925 481 
Q 2391 481 2648 825 
Q 2906 1169 2906 1791 
z
M 3481 434 
Q 3481 -459 3084 -895 
Q 2688 -1331 1869 -1331 
Q 1566 -1331 1297 -1286 
Q 1028 -1241 775 -1147 
L 775 -588 
Q 1028 -725 1275 -790 
Q 1522 -856 1778 -856 
Q 2344 -856 2625 -561 
Q 2906 -266 2906 331 
L 2906 616 
Q 2728 306 2450 153 
Q 2172 0 1784 0 
Q 1141 0 747 490 
Q 353 981 353 1791 
Q 353 2603 747 3093 
Q 1141 3584 1784 3584 
Q 2172 3584 2450 3431 
Q 2728 3278 2906 2969 
L 2906 3500 
L 3481 3500 
L 3481 434 
z
" transform="scale(0.015625)"/>
       <path id="DejaVuSans-48" d="M 3597 1894 
L 3597 1613 
L 953 1613 
Q 991 1019 1311 708 
Q 1631 397 2203 397 
Q 2534 397 2845 478 
Q 3156 559 3463 722 
L 3463 178 
Q 3153 47 2828 -22 
Q 2503 -91 2169 -91 
Q 1331 -91 842 396 
Q 353 884 353 1716 
Q 353 2575 817 3079 
Q 1281 3584 2069 3584 
Q 2775 3584 3186 3129 
Q 3597 2675 3597 1894 
z
M 3022 2063 
Q 3016 2534 2758 2815 
Q 2500 3097 2075 3097 
Q 1594 3097 1305 2825 
Q 1016 2553 972 2059 
L 3022 2063 
z
" transform="scale(0.015625)"/>
       <path id="DejaVuSans-55" d="M 2631 2963 
Q 2534 3019 2420 3045 
Q 2306 3072 2169 3072 
Q 1681 3072 1420 2755 
Q 1159 2438 1159 1844 
L 1159 0 
L 581 0 
L 581 3500 
L 1159 3500 
L 1159 2956 
Q 1341 3275 1631 3429 
Q 1922 3584 2338 3584 
Q 2397 3584 2469 3576 
Q 2541 3569 2628 3553 
L 2631 2963 
z
" transform="scale(0.015625)"/>
      </defs>
      <use xlink:href="#DejaVuSans-38"/>
      <use xlink:href="#DejaVuSans-3" transform="translate(73.1875 0)"/>
      <use xlink:href="#DejaVuSans-47" transform="translate(104.96875 0)"/>
      <use xlink:href="#DejaVuSans-44" transform="translate(168.453125 0)"/>
      <use xlink:href="#DejaVuSans-4a" transform="translate(229.734375 0)"/>
      <use xlink:href="#DejaVuSans-4a" transform="translate(293.21875 0)"/>
      <use xlink:href="#DejaVuSans-48" transform="translate(356.703125 0)"/>
      <use xlink:href="#DejaVuSans-55" transform="translate(418.234375 0)"/>
     </g>
    </g>
    <g clip-path="url(#pc172fc6d53)">
     <!-- 15.9800 s -->
     <g style="fill: #ffffff" transform="translate(273.487918 124.133027) scale(0.12 -0.12)">
      <defs>
       <path id="DejaVuSans-18" d="M 691 4666 
L 3169 4666 
L 3169 4134 
L 1269 4134 
L 1269 2991 
Q 1406 3038 1543 3061 
Q 1681 3084 1819 3084 
Q 2600 3084 3056 2656 
Q 3513 2228 3513 1497 
Q 3513 744 3044 326 
Q 2575 -91 1722 -91 
Q 1428 -91 1123 -41 
Q 819 9 494 109 
L 494 744 
Q 775 591 1075 516 
Q 1375 441 1709 441 
Q 2250 441 2565 725 
Q 2881 1009 2881 1497 
Q 2881 1984 2565 2268 
Q 2250 2553 1709 2553 
Q 1456 2553 1204 2497 
Q 953 2441 691 2322 
L 691 4666 
z
" transform="scale(0.015625)"/>
       <path id="DejaVuSans-1c" d="M 703 97 
L 703 672 
Q 941 559 1184 500 
Q 1428 441 1663 441 
Q 2288 441 2617 861 
Q 2947 1281 2994 2138 
Q 2813 1869 2534 1725 
Q 2256 1581 1919 1581 
Q 1219 1581 811 2004 
Q 403 2428 403 3163 
Q 403 3881 828 4315 
Q 1253 4750 1959 4750 
Q 2769 4750 3195 4129 
Q 3622 3509 3622 2328 
Q 3622 1225 3098 567 
Q 2575 -91 1691 -91 
Q 1453 -91 1209 -44 
Q 966 3 703 97 
z
M 1959 2075 
Q 2384 2075 2632 2365 
Q 2881 2656 2881 3163 
Q 2881 3666 2632 3958 
Q 2384 4250 1959 4250 
Q 1534 4250 1286 3958 
Q 1038 3666 1038 3163 
Q 1038 2656 1286 2365 
Q 1534 2075 1959 2075 
z
" transform="scale(0.015625)"/>
       <path id="DejaVuSans-1b" d="M 2034 2216 
Q 1584 2216 1326 1975 
Q 1069 1734 1069 1313 
Q 1069 891 1326 650 
Q 1584 409 2034 409 
Q 2484 409 2743 651 
Q 3003 894 3003 1313 
Q 3003 1734 2745 1975 
Q 2488 2216 2034 2216 
z
M 1403 2484 
Q 997 2584 770 2862 
Q 544 3141 544 3541 
Q 544 4100 942 4425 
Q 1341 4750 2034 4750 
Q 2731 4750 3128 4425 
Q 3525 4100 3525 3541 
Q 3525 3141 3298 2862 
Q 3072 2584 2669 2484 
Q 3125 2378 3379 2068 
Q 3634 1759 3634 1313 
Q 3634 634 3220 271 
Q 2806 -91 2034 -91 
Q 1263 -91 848 271 
Q 434 634 434 1313 
Q 434 1759 690 2068 
Q 947 2378 1403 2484 
z
M 1172 3481 
Q 1172 3119 1398 2916 
Q 1625 2713 2034 2713 
Q 2441 2713 2670 2916 
Q 2900 3119 2900 3481 
Q 2900 3844 2670 4047 
Q 2441 4250 2034 4250 
Q 1625 4250 1398 4047 
Q 1172 3844 1172 3481 
z
" transform="scale(0.015625)"/>
      </defs>
      <use xlink:href="#DejaVuSans-14"/>
      <use xlink:href="#DejaVuSans-18" transform="translate(63.625 0)"/>
      <use xlink:href="#DejaVuSans-11" transform="translate(127.25 0)"/>
      <use xlink:href="#DejaVuSans-1c" transform="translate(159.03125 0)"/>
      <use xlink:href="#DejaVuSans-1b" transform="translate(222.65625 0)"/>
      <use xlink:href="#DejaVuSans-13" transform="translate(286.28125 0)"/>
      <use xlink:href="#DejaVuSans-13" transform="translate(349.90625 0)"/>
      <use xlink:href="#DejaVuSans-3" transform="translate(413.53125 0)"/>
      <use xlink:href="#DejaVuSans-56" transform="translate(445.3125 0)"/>
     </g>
    </g>
   </g>
   <g id="text_15">
    <g clip-path="url(#pc172fc6d53)">
     <!-- 0 -->
     <g style="fill: #ffffff" transform="translate(404.914765 47.400387) scale(0.12 -0.12)">
      <use xlink:href="#DejaVuSans-13"/>
     </g>
    </g>
   </g>
   <g id="text_16">
    <g clip-path="url(#pc172fc6d53)">
     <!-- 1 -->
     <g style="fill: #ffffff" transform="translate(404.914765 93.754386) scale(0.12 -0.12)">
      <use xlink:href="#DejaVuSans-14"/>
     </g>
    </g>
   </g>
   <g id="text_17">
    <g clip-path="url(#pc172fc6d53)">
     <!-- 2 -->
     <g style="fill: #ffffff" transform="translate(404.914765 140.108386) scale(0.12 -0.12)">
      <use xlink:href="#DejaVuSans-15"/>
     </g>
    </g>
   </g>
   <g id="text_18">
    <g clip-path="url(#pc172fc6d53)">
     <!-- 3 -->
     <g style="fill: #ffffff" transform="translate(404.914765 186.462385) scale(0.12 -0.12)">
      <use xlink:href="#DejaVuSans-16"/>
     </g>
    </g>
   </g>
   <g id="text_19">
    <g clip-path="url(#pc172fc6d53)">
     <!-- O_0 -->
     <g style="fill: #ffffff" transform="translate(454.030666 109.730214) scale(0.12 -0.12)">
      <use xlink:href="#DejaVuSans-32"/>
      <use xlink:href="#DejaVuSans-42" transform="translate(78.71875 0)"/>
      <use xlink:href="#DejaVuSans-13" transform="translate(128.71875 0)"/>
     </g>
    </g>
    <g clip-path="url(#pc172fc6d53)">
     <!-- 0.8790 ms -->
     <g style="fill: #ffffff" transform="translate(433.700041 124.132558) scale(0.12 -0.12)">
      <defs>
       <path id="DejaVuSans-50" d="M 3328 2828 
Q 3544 3216 3844 3400 
Q 4144 3584 4550 3584 
Q 5097 3584 5394 3201 
Q 5691 2819 5691 2113 
L 5691 0 
L 5113 0 
L 5113 2094 
Q 5113 2597 4934 2840 
Q 4756 3084 4391 3084 
Q 3944 3084 3684 2787 
Q 3425 2491 3425 1978 
L 3425 0 
L 2847 0 
L 2847 2094 
Q 2847 2600 2669 2842 
Q 2491 3084 2119 3084 
Q 1678 3084 1418 2786 
Q 1159 2488 1159 1978 
L 1159 0 
L 581 0 
L 581 3500 
L 1159 3500 
L 1159 2956 
Q 1356 3278 1631 3431 
Q 1906 3584 2284 3584 
Q 2666 3584 2933 3390 
Q 3200 3197 3328 2828 
z
" transform="scale(0.015625)"/>
      </defs>
      <use xlink:href="#DejaVuSans-13"/>
      <use xlink:href="#DejaVuSans-11" transform="translate(63.625 0)"/>
      <use xlink:href="#DejaVuSans-1b" transform="translate(95.40625 0)"/>
      <use xlink:href="#DejaVuSans-1a" transform="translate(159.03125 0)"/>
      <use xlink:href="#DejaVuSans-1c" transform="translate(222.65625 0)"/>
      <use xlink:href="#DejaVuSans-13" transform="translate(286.28125 0)"/>
      <use xlink:href="#DejaVuSans-3" transform="translate(349.90625 0)"/>
      <use xlink:href="#DejaVuSans-50" transform="translate(381.6875 0)"/>
      <use xlink:href="#DejaVuSans-56" transform="translate(479.09375 0)"/>
     </g>
    </g>
   </g>
   <g id="text_20">
    <g clip-path="url(#pc172fc6d53)">
     <!-- 0 -->
     <g style="fill: #ffffff" transform="translate(554.552428 47.400387) scale(0.12 -0.12)">
      <use xlink:href="#DejaVuSans-13"/>
     </g>
    </g>
   </g>
   <g id="text_21">
    <g clip-path="url(#pc172fc6d53)">
     <!-- 1 -->
     <g style="fill: #ffffff" transform="translate(554.552428 93.754386) scale(0.12 -0.12)">
      <use xlink:href="#DejaVuSans-14"/>
     </g>
    </g>
   </g>
   <g id="text_22">
    <g clip-path="url(#pc172fc6d53)">
     <!-- 2 -->
     <g style="fill: #ffffff" transform="translate(554.552428 140.108386) scale(0.12 -0.12)">
      <use xlink:href="#DejaVuSans-15"/>
     </g>
    </g>
   </g>
   <g id="text_23">
    <g clip-path="url(#pc172fc6d53)">
     <!-- 3 -->
     <g style="fill: #ffffff" transform="translate(554.552428 186.462385) scale(0.12 -0.12)">
      <use xlink:href="#DejaVuSans-16"/>
     </g>
    </g>
   </g>
   <g id="text_24">
    <g clip-path="url(#pc172fc6d53)">
     <!-- U -->
     <g style="fill: #ffffff" transform="translate(600.242039 109.730214) scale(0.12 -0.12)">
      <use xlink:href="#DejaVuSans-38"/>
     </g>
    </g>
    <g clip-path="url(#pc172fc6d53)">
     <!-- 15.9800 s -->
     <g style="fill: #ffffff" transform="translate(574.788914 124.132558) scale(0.12 -0.12)">
      <use xlink:href="#DejaVuSans-14"/>
      <use xlink:href="#DejaVuSans-18" transform="translate(63.625 0)"/>
      <use xlink:href="#DejaVuSans-11" transform="translate(127.25 0)"/>
      <use xlink:href="#DejaVuSans-1c" transform="translate(159.03125 0)"/>
      <use xlink:href="#DejaVuSans-1b" transform="translate(222.65625 0)"/>
      <use xlink:href="#DejaVuSans-13" transform="translate(286.28125 0)"/>
      <use xlink:href="#DejaVuSans-13" transform="translate(349.90625 0)"/>
      <use xlink:href="#DejaVuSans-3" transform="translate(413.53125 0)"/>
      <use xlink:href="#DejaVuSans-56" transform="translate(445.3125 0)"/>
     </g>
    </g>
   </g>
  </g>
 </g>
 <defs>
  <clipPath id="pc172fc6d53">
   <rect x="7.2" y="7.2" width="669.281988" height="203.957597"/>
  </clipPath>
 </defs>
</svg>
